<?xml version="1.0" encoding="UTF-8" standalone="no"?><!DOCTYPE svg PUBLIC "-//W3C//DTD SVG 1.1//EN" "http://www.w3.org/Graphics/SVG/1.1/DTD/svg11.dtd"><svg width="100%" height="100%" viewBox="0 0 120 120" version="1.1" xmlns="http://www.w3.org/2000/svg" xmlns:xlink="http://www.w3.org/1999/xlink" xml:space="preserve" xmlns:serif="http://www.serif.com/" style="fill-rule:evenodd;clip-rule:evenodd;stroke-linecap:round;stroke-linejoin:round;stroke-miterlimit:1.5;"><path d="M35.56,104.249c-15.564,-8.622 -26.108,-25.214 -26.108,-44.249c-0,-27.898 22.65,-50.548 50.548,-50.548c27.898,-0 50.548,22.65 50.548,50.548c0,17.933 -9.359,33.697 -23.456,42.673c0.044,0.547 0.057,1.139 0.034,1.782c-0.196,5.433 -5.934,7.097 -9.83,3.052c-5.398,1.968 -11.223,3.041 -17.296,3.041c-4.586,0 -9.031,-0.612 -13.254,-1.758c-1.032,1.084 -2.744,2.08 -5.36,1.66c-4.357,-0.699 -5.901,-3.318 -5.826,-6.201Z" style="fill:none;stroke:#333;stroke-width:3px;"/><g id="ascii-man" serif:id="ascii man"><path d="M76.354,89.836c1.377,7.3 11.163,3.778 10.772,14.619c-0.221,6.125 -7.484,7.459 -11.212,1.226c-0,0 -1.637,2.47 -3.603,1.501c-1.733,-0.859 -2.338,-2.447 -2.2,-4.515" style="fill:none;stroke:#333;stroke-width:3.71px;"/><path d="M52.231,102.421c2.039,3.453 -0.778,7.545 -4.373,4.751c-0.569,1.226 -2.452,3.923 -6.472,3.278c-6.849,-1.099 -6.747,-6.944 -4.331,-11.095c3.922,-6.74 7.289,-7.65 7.479,-8.433" style="fill:none;stroke:#333;stroke-width:3.69px;"/><g id="face"><path d="M51.824,28.976c3.176,-3.92 3.558,-7.551 3.558,-7.551c1.843,3.199 3.306,5.438 4.442,7.003c4.505,0.231 9.05,1.373 13.363,3.513c16.52,8.199 23.423,27.971 15.406,44.124c-8.017,16.153 -27.938,22.611 -44.458,14.412c-16.52,-8.2 -23.424,-27.971 -15.407,-44.124c1.034,-2.082 2.264,-4.002 3.66,-5.751c-1.128,-3.951 -2.907,-6.571 -2.907,-6.571c2.953,1.465 5.668,1.848 7.498,1.898c0.949,-0.786 1.941,-1.515 2.968,-2.185c1.4,-5.906 -0.13,-11.334 -0.13,-11.334c1.93,3.039 6.526,5.91 8.974,7.292c0.998,-0.289 2.01,-0.531 3.033,-0.726Z" style="fill:none;stroke:#333;stroke-width:3.72px;"/><path d="M53.495,61.583c-0.124,0.58 1.082,-6.017 7.155,-3.372" style="fill:none;stroke:#333;stroke-width:3.72px;"/><path d="M70.782,54.408c-0.124,0.58 1.082,-6.017 7.155,-3.372" style="fill:none;stroke:#333;stroke-width:3.72px;"/><path d="M83.729,61.55c0.18,4.248 -6.594,25.133 -34.654,17.52" style="fill:none;stroke:#333;stroke-width:3.72px;"/></g></g></svg>