<?xml version="1.0" encoding="UTF-8" standalone="no"?><!DOCTYPE svg PUBLIC "-//W3C//DTD SVG 1.1//EN" "http://www.w3.org/Graphics/SVG/1.1/DTD/svg11.dtd"><svg width="100%" height="100%" viewBox="0 0 120 120" version="1.1" xmlns="http://www.w3.org/2000/svg" xmlns:xlink="http://www.w3.org/1999/xlink" xml:space="preserve" xmlns:serif="http://www.serif.com/" style="fill-rule:evenodd;clip-rule:evenodd;stroke-linecap:round;stroke-linejoin:round;stroke-miterlimit:1.5;"><g id="face"><path d="M55.323,23.208c4.498,-4.566 5.427,-9.11 5.427,-9.11c1.937,4.272 3.511,7.282 4.755,9.401c5.667,0.847 11.273,2.849 16.462,6.086c19.878,12.4 26.173,38.246 14.049,57.682c-12.125,19.437 -38.106,25.149 -57.983,12.75c-19.878,-12.399 -26.173,-38.246 -14.049,-57.682c1.563,-2.505 3.355,-4.781 5.335,-6.821c-0.939,-5.134 -2.866,-8.665 -2.866,-8.665c3.553,2.216 6.938,3.034 9.245,3.322c1.298,-0.877 2.641,-1.677 4.022,-2.397c2.497,-7.294 1.231,-14.345 1.231,-14.345c2.066,4.08 7.523,8.274 10.448,10.323c1.297,-0.242 2.606,-0.424 3.924,-0.544Z" style="fill:none;stroke:#333;stroke-width:7px;"/><path d="M53.423,64.639c-0.228,0.718 2.108,-7.475 9.462,-3.383" style="fill:none;stroke:#333;stroke-width:7px;"/><path d="M76.162,57.694c-0.228,0.718 2.108,-7.474 9.461,-3.382" style="fill:none;stroke:#333;stroke-width:7px;"/><path d="M91.652,68.318c-0.296,5.393 -11.43,30.964 -45.97,17.886" style="fill:none;stroke:#333;stroke-width:7px;"/></g></svg>