<?xml version="1.0" encoding="UTF-8" standalone="no"?>
<!DOCTYPE svg PUBLIC "-//W3C//DTD SVG 1.1//EN" "http://www.w3.org/Graphics/SVG/1.1/DTD/svg11.dtd">
<svg width="100%" height="100%" viewBox="0 0 223 128" version="1.1" xmlns="http://www.w3.org/2000/svg" xmlns:xlink="http://www.w3.org/1999/xlink" xml:space="preserve" xmlns:serif="http://www.serif.com/" style="fill-rule:evenodd;clip-rule:evenodd;stroke-linejoin:round;stroke-miterlimit:2;">
    <rect id="Artboard1" x="0" y="0" width="222.636" height="128" style="fill:none;"/>
    <g id="Artboard11" serif:id="Artboard1">
        <path id="path18" d="M26.426,0C21.176,0 16.514,1.891 12.939,5.485C9.346,9.078 7.421,13.756 7.421,19.005C7.421,23.271 8.851,27.269 11.422,30.524C10.02,31.779 8.692,33.184 7.486,34.718C2.532,40.968 0,48.282 0,56.498L0,94.056C0,102.066 2.577,109.356 7.583,115.739C13.829,123.763 22.943,128 33.976,128C44.989,128 54.183,123.729 60.467,115.706C60.591,115.556 60.698,115.399 60.822,115.255C60.947,115.43 61.085,115.606 61.209,115.771C67.457,123.782 76.618,128 87.635,128C98.644,128 107.817,123.74 114.125,115.706C114.244,115.558 114.377,115.399 114.48,115.255C114.614,115.426 114.723,115.574 114.867,115.739C121.124,123.764 130.252,128 141.293,128C150.368,128 158.18,125.106 164.17,119.611C164.848,120.601 165.642,121.54 166.526,122.418C170.141,126.074 174.788,128 179.948,128C184.385,128 188.451,126.576 191.79,123.87C195.149,126.577 199.193,128 203.632,128C208.774,128 213.413,126.086 217.054,122.45C220.7,118.808 222.636,114.187 222.636,109.028L222.636,41.365C222.636,37.21 221.358,33.429 218.958,30.234C221.361,27.024 222.636,23.189 222.636,19.005C222.636,13.876 220.723,9.228 217.054,5.55C213.415,1.916 208.758,0 203.632,0C199.123,0 195.06,1.382 191.725,4.066C188.365,1.382 184.347,0 179.948,0C174.706,0 170.05,1.891 166.461,5.485C165.572,6.37 164.783,7.341 164.106,8.357C158.14,2.882 150.368,0 141.293,0C130.177,0 120.976,4.241 114.803,12.165C114.666,12.338 114.528,12.516 114.383,12.681C114.268,12.534 114.132,12.374 114.029,12.229C107.768,4.225 98.656,0 87.635,0C76.528,0 67.341,4.241 61.144,12.165C61.032,12.308 60.925,12.439 60.822,12.584C59.314,10.732 57.611,9.014 55.659,7.486C49.427,2.519 42.114,0 33.976,0L26.426,0L26.426,0ZM26.426,11.422L33.976,11.422C39.493,11.422 44.34,13.099 48.528,16.423C53.856,20.613 56.53,26.454 56.53,33.976L56.53,94.024C56.53,99.547 54.86,104.419 51.529,108.608C47.353,113.933 41.488,116.578 33.976,116.578C26.461,116.578 20.679,113.973 16.585,108.737C13.158,104.367 11.454,99.444 11.454,94.024L11.454,56.53C11.454,50.915 13.111,45.992 16.456,41.817C20.539,36.581 26.374,33.976 33.976,33.976L41.397,33.976C41.397,31.214 40.678,29.244 39.203,28.104C37.728,26.96 35.983,26.394 33.976,26.394L26.426,26.394C24.433,26.394 22.65,25.689 21.134,24.264C19.603,22.836 18.876,21.065 18.876,18.973C18.876,16.779 19.587,14.973 21.005,13.552C22.427,12.115 24.238,11.422 26.426,11.422ZM87.635,11.422C95.15,11.422 100.96,14.031 105.059,19.263C108.484,23.543 110.189,28.457 110.189,33.976L110.189,41.365C110.189,43.46 109.437,45.273 107.963,46.754C106.491,48.221 104.695,48.948 102.606,48.948C100.512,48.948 98.755,48.222 97.282,46.754C95.802,45.273 95.056,43.46 95.056,41.365L95.056,33.976C95.056,31.881 94.582,30.206 93.636,28.975C92.3,27.26 90.296,26.394 87.635,26.394C84.877,26.394 82.932,27.139 81.795,28.62C80.655,30.093 80.085,31.881 80.085,33.976L80.085,48.819C80.085,51.005 80.612,52.823 81.698,54.304C82.788,55.777 84.777,56.53 87.635,56.53C95.15,56.53 100.96,59.148 105.059,64.371C108.484,68.655 110.189,73.547 110.189,79.052L110.189,94.024C110.189,99.547 108.511,104.419 105.188,108.608C101.001,113.933 95.15,116.578 87.635,116.578C80.122,116.578 74.326,113.973 70.243,108.737C66.821,104.367 65.081,99.444 65.081,94.024L65.081,86.473C65.081,84.386 65.818,82.604 67.243,81.182C68.672,79.752 70.41,79.052 72.502,79.052C74.505,79.052 76.268,79.753 77.794,81.182C79.317,82.605 80.085,84.386 80.085,86.473L80.085,93.895C80.085,96.083 80.612,97.89 81.698,99.315C82.788,100.743 84.777,101.445 87.635,101.445C90.296,101.445 92.3,100.646 93.636,99.025C94.582,97.788 95.056,96.121 95.056,94.024L95.056,79.052C95.056,76.965 94.582,75.288 93.636,74.051C92.3,72.339 90.296,71.502 87.635,71.502C80.122,71.502 74.326,68.889 70.243,63.661C66.821,59.385 65.081,54.459 65.081,48.948L65.081,33.976C65.081,28.361 66.739,23.446 70.082,19.263C74.159,14.031 80.028,11.422 87.635,11.422L87.635,11.422ZM141.293,11.422C148.807,11.422 154.621,14.031 158.717,19.263C162.134,23.543 163.848,28.457 163.848,33.976L163.848,41.365C163.848,43.46 163.104,45.273 161.621,46.754C160.154,48.221 158.351,48.948 156.265,48.948C154.173,48.948 152.383,48.222 150.909,46.754C149.428,45.273 148.715,43.46 148.715,41.365L148.715,33.976C148.715,31.881 148.223,30.206 147.263,28.975C145.938,27.26 143.946,26.394 141.293,26.394C138.535,26.394 136.573,27.139 135.421,28.62C134.275,30.093 133.711,31.881 133.711,33.976L133.711,93.895C133.711,96.083 134.264,97.89 135.357,99.315C136.448,100.743 138.432,101.445 141.293,101.445C143.946,101.445 145.939,100.646 147.263,99.025C148.223,97.788 148.715,96.121 148.715,94.024L148.715,86.473C148.715,84.386 149.417,82.604 150.844,81.182C152.268,79.752 154.071,79.052 156.265,79.052C158.255,79.052 160.035,79.753 161.557,81.182C163.081,82.605 163.848,84.386 163.848,86.473L163.848,94.024C163.848,99.547 162.169,104.419 158.846,108.608C154.656,113.933 148.807,116.578 141.293,116.578C133.772,116.578 127.949,113.973 123.87,108.737C120.445,104.367 118.739,99.444 118.739,94.024L118.739,33.976C118.739,28.361 120.406,23.446 123.741,19.263C127.826,14.031 133.681,11.422 141.293,11.422L141.293,11.422ZM179.948,11.422C182.05,11.422 183.818,12.17 185.305,13.649C186.773,15.122 187.499,16.874 187.499,18.973C187.499,21.065 186.794,22.837 185.369,24.264C183.947,25.69 182.14,26.394 179.948,26.394C177.956,26.394 176.198,25.689 174.689,24.264C173.166,22.836 172.398,21.065 172.398,18.973C172.398,16.779 173.107,14.973 174.528,13.552C175.956,12.115 177.761,11.422 179.948,11.422ZM203.632,11.422C205.714,11.422 207.513,12.17 208.988,13.649C210.462,15.122 211.214,16.874 211.214,18.973C211.214,21.065 210.477,22.837 209.052,24.264C207.617,25.69 205.819,26.394 203.632,26.394C201.631,26.394 199.898,25.689 198.372,24.264C196.849,22.836 196.081,21.065 196.081,18.973C196.081,16.779 196.788,14.973 198.211,13.552C199.641,12.115 201.438,11.422 203.632,11.422ZM179.948,33.976C181.951,33.976 183.708,34.681 185.24,36.106C186.757,37.529 187.499,39.274 187.499,41.365L187.499,109.027C187.499,111.127 186.773,112.909 185.305,114.384C183.817,115.862 182.05,116.578 179.948,116.578C177.86,116.578 176.069,115.862 174.592,114.384C173.126,112.909 172.398,111.127 172.398,109.027L172.398,41.365C172.398,39.274 173.107,37.529 174.528,36.106C175.956,34.682 177.761,33.976 179.948,33.976ZM203.632,33.976C205.62,33.976 207.412,34.681 208.923,36.106C210.446,37.529 211.214,39.274 211.214,41.365L211.214,109.027C211.214,111.127 210.462,112.909 208.988,114.384C207.514,115.862 205.714,116.578 203.632,116.578C201.546,116.578 199.744,115.862 198.275,114.384C196.793,112.909 196.081,111.127 196.081,109.027L196.081,41.365C196.081,39.274 196.788,37.529 198.211,36.106C199.641,34.682 201.438,33.976 203.632,33.976ZM33.976,48.948C31.222,48.948 29.28,49.676 28.136,51.142C26.996,52.626 26.426,54.434 26.426,56.53L26.426,93.895C26.426,96.083 26.973,97.89 28.072,99.315C29.158,100.743 31.126,101.445 33.976,101.445C36.635,101.445 38.64,100.646 39.978,99.025C40.926,97.788 41.398,96.121 41.398,94.024L41.398,48.948L33.976,48.948Z" style="fill-rule:nonzero;"/>
    </g>
</svg>
