<?xml version="1.0" encoding="UTF-8" standalone="no"?><!DOCTYPE svg PUBLIC "-//W3C//DTD SVG 1.1//EN" "http://www.w3.org/Graphics/SVG/1.1/DTD/svg11.dtd"><svg width="100%" height="100%" viewBox="0 0 120 120" version="1.1" xmlns="http://www.w3.org/2000/svg" xmlns:xlink="http://www.w3.org/1999/xlink" xml:space="preserve" xmlns:serif="http://www.serif.com/" style="fill-rule:evenodd;clip-rule:evenodd;stroke-linecap:round;stroke-linejoin:round;stroke-miterlimit:1.5;"><path d="M33.319,108.306c-16.991,-9.413 -28.502,-27.526 -28.502,-48.306c0,-30.456 24.727,-55.183 55.183,-55.183c30.456,0 55.183,24.727 55.183,55.183c-0,19.577 -10.217,36.787 -25.607,46.585c0.049,0.597 0.062,1.244 0.037,1.946c-0.214,5.932 -6.478,7.747 -10.731,3.332c-5.893,2.148 -12.252,3.32 -18.882,3.32c-5.007,-0 -9.859,-0.668 -14.469,-1.92c-1.127,1.184 -2.995,2.271 -5.852,1.813c-4.756,-0.763 -6.442,-3.623 -6.36,-6.77Z" style="fill:none;stroke:#000;stroke-width:8px;"/><g id="ascii-man" serif:id="ascii man"><path d="M77.854,92.571c1.503,7.97 12.186,4.125 11.759,15.96c-0.241,6.686 -8.17,8.143 -12.24,1.339c-0,-0 -1.787,2.696 -3.933,1.638c-1.892,-0.938 -2.553,-2.671 -2.402,-4.929" style="fill:none;stroke:#000;stroke-width:8px;"/><path d="M51.518,106.311c2.227,3.769 -0.849,8.236 -4.774,5.187c-0.62,1.337 -2.676,4.282 -7.065,3.578c-7.477,-1.2 -7.365,-7.581 -4.728,-12.113c4.282,-7.358 7.957,-8.351 8.165,-9.206" style="fill:none;stroke:#000;stroke-width:8px;"/><g id="face"><path d="M51.075,26.132c3.467,-4.28 3.883,-8.244 3.883,-8.244c2.013,3.492 3.609,5.936 4.85,7.645c4.918,0.252 9.879,1.499 14.588,3.835c18.035,8.951 25.571,30.535 16.819,48.17c-8.752,17.634 -30.5,24.684 -48.535,15.733c-18.035,-8.951 -25.571,-30.535 -16.819,-48.169c1.128,-2.273 2.472,-4.37 3.995,-6.279c-1.231,-4.313 -3.173,-7.173 -3.173,-7.173c3.224,1.6 6.187,2.017 8.185,2.072c1.037,-0.859 2.119,-1.654 3.241,-2.385c1.528,-6.448 -0.142,-12.373 -0.142,-12.373c2.107,3.317 7.124,6.451 9.797,7.96c1.088,-0.315 2.193,-0.58 3.311,-0.792Z" style="fill:none;stroke:#000;stroke-width:8px;"/><path d="M48.212,61.531c-0.135,0.633 1.181,-6.569 7.812,-3.681" style="fill:none;stroke:#000;stroke-width:8px;"/><path d="M67.084,53.698c-0.135,0.633 1.181,-6.569 7.812,-3.681" style="fill:none;stroke:#000;stroke-width:8px;"/><path d="M83.044,62.144c0.196,4.637 -7.198,27.437 -37.832,19.126" style="fill:none;stroke:#000;stroke-width:8px;"/></g></g></svg>