<?xml version="1.0" encoding="UTF-8" standalone="no"?><!DOCTYPE svg PUBLIC "-//W3C//DTD SVG 1.1//EN" "http://www.w3.org/Graphics/SVG/1.1/DTD/svg11.dtd"><svg width="100%" height="100%" viewBox="0 0 120 120" version="1.1" xmlns="http://www.w3.org/2000/svg" xmlns:xlink="http://www.w3.org/1999/xlink" xml:space="preserve" xmlns:serif="http://www.serif.com/" style="fill-rule:evenodd;clip-rule:evenodd;stroke-linecap:round;stroke-linejoin:round;stroke-miterlimit:1.5;"><rect id="Kaffe-Stempel-Icon" x="0" y="0" width="120" height="120" style="fill:none;"/><g id="tasse"><path d="M76.798,48.317c0,-2.087 -1.695,-3.782 -3.782,-3.782l-30.259,-0c-2.088,-0 -3.782,1.695 -3.782,3.782l-0,39.145c-0,2.088 1.694,3.783 3.782,3.783l30.259,-0c2.087,-0 3.782,-1.695 3.782,-3.783l0,-39.145Z" style="fill:none;stroke:#000;stroke-width:7px;"/><rect x="38.975" y="55.657" width="37.824" height="35.588"/><path d="M76.798,48.63c20.928,-0 20.928,38.52 0,38.52" style="fill:none;stroke:#000;stroke-width:7px;"/><g><path d="M50.05,22.005c0,8.777 -3.023,4.87 -3.023,13.648" style="fill:none;stroke:#000;stroke-width:5px;"/><path d="M61.631,22.005c-0,8.777 -3.024,4.87 -3.024,13.648" style="fill:none;stroke:#000;stroke-width:5px;"/><path d="M73.211,22.005c-0,8.777 -3.023,4.87 -3.023,13.648" style="fill:none;stroke:#000;stroke-width:5px;"/></g></g><path d="M60,8.145c28.619,0 51.855,23.236 51.855,51.855c-0,28.619 -23.236,51.855 -51.855,51.855c-28.619,-0 -51.855,-23.236 -51.855,-51.855c0,-28.619 23.236,-51.855 51.855,-51.855Zm0,6.611c24.971,-0 45.244,20.273 45.244,45.244c0,24.971 -20.273,45.244 -45.244,45.244c-24.971,0 -45.244,-20.273 -45.244,-45.244c-0,-24.971 20.273,-45.244 45.244,-45.244Z"/><path d="M60,0l7.518,2.893l8.011,-0.849l6.514,4.741l7.957,1.253l5.065,6.265l7.361,3.271l3.271,7.361l6.265,5.065l1.253,7.957l4.741,6.514l-0.849,8.011l2.893,7.518l-2.893,7.518l0.849,8.011l-4.741,6.514l-1.253,7.957l-6.265,5.065l-3.271,7.361l-7.361,3.271l-5.065,6.265l-7.957,1.253l-6.514,4.741l-8.011,-0.849l-7.518,2.893l-7.518,-2.893l-8.011,0.849l-6.514,-4.741l-7.957,-1.253l-5.065,-6.265l-7.361,-3.271l-3.271,-7.361l-6.265,-5.065l-1.253,-7.957l-4.741,-6.514l0.849,-8.011l-2.893,-7.518l2.893,-7.518l-0.849,-8.011l4.741,-6.514l1.253,-7.957l6.265,-5.065l3.271,-7.361l7.361,-3.271l5.065,-6.265l7.957,-1.253l6.514,-4.741l8.011,0.849l7.518,-2.893Zm0,4.194l6.993,2.691l7.451,-0.789l6.058,4.409l7.401,1.166l4.71,5.826l6.848,3.042l3.042,6.848l5.826,4.71l1.166,7.401l4.409,6.058l-0.789,7.451l2.691,6.993l-2.691,6.993l0.789,7.451l-4.409,6.058l-1.166,7.401l-5.826,4.71l-3.042,6.848l-6.848,3.042l-4.71,5.826l-7.401,1.166l-6.058,4.409l-7.451,-0.789l-6.993,2.691l-6.993,-2.691l-7.451,0.789l-6.058,-4.409l-7.401,-1.166l-4.71,-5.826l-6.848,-3.042l-3.042,-6.848l-5.826,-4.71l-1.166,-7.401l-4.409,-6.058l0.789,-7.451l-2.691,-6.993l2.691,-6.993l-0.789,-7.451l4.409,-6.058l1.166,-7.401l5.826,-4.71l3.042,-6.848l6.848,-3.042l4.71,-5.826l7.401,-1.166l6.058,-4.409l7.451,0.789l6.993,-2.691Z"/></svg>